Using Number of CPU cores: 8
Number of CPU cores: 16
Using CPU
using GPUs:
[]
start: 2022-06-18 11:19:51.666812
# clients: 1000, # total samples: 458407
# positives: 117317.0, # negatives: 341090.0
final auc: 0.7493438836651983
true base_rate: 0.2559232297936114
base_rate_corr: 0.2559272466387153
auc_corrupted: 0.7493438836651983, auc_real: 0.7493806902128204
final auc: 0.7493576356564293
true base_rate: 0.2559232297936114
base_rate_corr: 0.2559119749791903
auc_corrupted: 0.7493576356564293, auc_real: 0.749394446561481
final auc: 0.7493577322463014
true base_rate: 0.2559232297936114
base_rate_corr: 0.25591415664483674
auc_corrupted: 0.7493577322463014, auc_real: 0.749394542833099
final auc: 0.7493647218085244
true base_rate: 0.2559232297936114
base_rate_corr: 0.2559185199761296
auc_corrupted: 0.7493647218085244, auc_real: 0.7494015327621081
final auc: 0.7493160565266231
true base_rate: 0.2559232297936114
base_rate_corr: 0.25593379163565455
auc_corrupted: 0.7493160565266231, auc_real: 0.7493528579693699
final auc: 0.7493701427034347
true base_rate: 0.2559232297936114
base_rate_corr: 0.25592288330742247
auc_corrupted: 0.7493701427034347, auc_real: 0.7494069537922331
final auc: 0.749335808348409
true base_rate: 0.2559232297936114
base_rate_corr: 0.2559316099700082
auc_corrupted: 0.749335808348409, auc_real: 0.7493726130391375
final auc: 0.7493715017665478
true base_rate: 0.2559232297936114
base_rate_corr: 0.2559119749791903
auc_corrupted: 0.7493715017665478, auc_real: 0.7494083147185553
final auc: 0.749365382870193
true base_rate: 0.2559232297936114
base_rate_corr: 0.25592070164177605
auc_corrupted: 0.749365382870193, auc_real: 0.749402193588859
final auc: 0.7493584710505881
true base_rate: 0.2559232297936114
base_rate_corr: 0.2559250649730689
auc_corrupted: 0.7493584710505881, auc_real: 0.7493952800839803
final auc: 0.7493123801614903
true base_rate: 0.2559232297936114
base_rate_corr: 0.25593379163565455
auc_corrupted: 0.7493123801614903, auc_real: 0.7493491810615702
final auc: 0.7493263855351673
true base_rate: 0.2559232297936114
base_rate_corr: 0.25593597330130097
auc_corrupted: 0.7493263855351673, auc_real: 0.7493631881701707
final auc: 0.7493363464591848
true base_rate: 0.2559232297936114
base_rate_corr: 0.2559185199761296
auc_corrupted: 0.7493363464591848, auc_real: 0.7493731532240298
final auc: 0.7493648067716077
true base_rate: 0.2559232297936114
base_rate_corr: 0.2559272466387153
auc_corrupted: 0.7493648067716077, auc_real: 0.7494016164077648
final auc: 0.7493438880633204
true base_rate: 0.2559232297936114
base_rate_corr: 0.25593815496694744
auc_corrupted: 0.7493438880633204, auc_real: 0.7493806929494208
final auc: 0.7493768880291767
true base_rate: 0.2559232297936114
base_rate_corr: 0.25591633831048316
auc_corrupted: 0.7493768880291767, auc_real: 0.7494137011112499
final auc: 0.7493408289030625
true base_rate: 0.2559232297936114
base_rate_corr: 0.2559294283043617
auc_corrupted: 0.7493408289030625, auc_real: 0.7493776346673167
final auc: 0.7493530622562362
true base_rate: 0.2559232297936114
base_rate_corr: 0.2559185199761296
auc_corrupted: 0.7493530622562362, auc_real: 0.7493898714886492
final auc: 0.7493411563219109
true base_rate: 0.2559232297936114
base_rate_corr: 0.25592070164177605
auc_corrupted: 0.7493411563219109, auc_real: 0.749377963464312
final auc: 0.7493629413189506
true base_rate: 0.2559232297936114
base_rate_corr: 0.2559119749791903
auc_corrupted: 0.7493629413189506, auc_real: 0.7493997530072398
final auc: 0.7493546398830558
true base_rate: 0.2559232297936114
base_rate_corr: 0.25591633831048316
auc_corrupted: 0.7493546398830558, auc_real: 0.7493914496808519
final auc: 0.7493723802097778
true base_rate: 0.2559232297936114
base_rate_corr: 0.2559294283043617
auc_corrupted: 0.7493723802097778, auc_real: 0.7494091906313918
final auc: 0.7493629917802451
true base_rate: 0.2559232297936114
base_rate_corr: 0.2559316099700082
auc_corrupted: 0.7493629917802451, auc_real: 0.7493998004835454
final auc: 0.7493578838702648
true base_rate: 0.2559232297936114
base_rate_corr: 0.25592070164177605
auc_corrupted: 0.7493578838702648, auc_real: 0.7493946934819463
final auc: 0.7493568301753912
true base_rate: 0.2559232297936114
base_rate_corr: 0.2559185199761296
auc_corrupted: 0.7493568301753912, auc_real: 0.7493936399640204
final auc: 0.7493315643856349
true base_rate: 0.2559232297936114
base_rate_corr: 0.25592288330742247
auc_corrupted: 0.7493315643856349, auc_real: 0.749368369779646
final auc: 0.7493333958163828
true base_rate: 0.2559232297936114
base_rate_corr: 0.25592288330742247
auc_corrupted: 0.7493333958163828, auc_real: 0.749370201480743
final auc: 0.7493756970322243
true base_rate: 0.2559232297936114
base_rate_corr: 0.2559119749791903
auc_corrupted: 0.7493756970322243, auc_real: 0.7494125106035493
final auc: 0.7493627907353511
true base_rate: 0.2559232297936114
base_rate_corr: 0.2559294283043617
auc_corrupted: 0.7493627907353511, auc_real: 0.749399599741441
final auc: 0.7493422616547658
true base_rate: 0.2559232297936114
base_rate_corr: 0.2559316099700082
auc_corrupted: 0.7493422616547658, auc_real: 0.7493790672980729
final auc: 0.7493208631744748
true base_rate: 0.2559232297936114
base_rate_corr: 0.25594251829824033
auc_corrupted: 0.7493208631744748, auc_real: 0.7493576639971817
final auc: 0.7493659256179424
true base_rate: 0.2559232297936114
base_rate_corr: 0.25592070164177605
auc_corrupted: 0.7493659256179424, auc_real: 0.7494027364167274
final auc: 0.7493593154539587
true base_rate: 0.2559232297936114
base_rate_corr: 0.2559185199761296
auc_corrupted: 0.7493593154539587, auc_real: 0.7493961256094621
final auc: 0.7493302719189091
true base_rate: 0.2559232297936114
base_rate_corr: 0.2559272466387153
auc_corrupted: 0.7493302719189091, auc_real: 0.7493670764572524
final auc: 0.7493408628627862
true base_rate: 0.2559232297936114
base_rate_corr: 0.2559272466387153
auc_corrupted: 0.7493408628627862, auc_real: 0.7493776689644969
final auc: 0.749367897553008
true base_rate: 0.2559232297936114
base_rate_corr: 0.2559119749791903
auc_corrupted: 0.749367897553008, auc_real: 0.749404709972951
final auc: 0.7493276078238204
true base_rate: 0.2559232297936114
base_rate_corr: 0.25593379163565455
auc_corrupted: 0.7493276078238204, auc_real: 0.7493644109716494
final auc: 0.7493453594282573
true base_rate: 0.2559232297936114
base_rate_corr: 0.2559185199761296
auc_corrupted: 0.7493453594282573, auc_real: 0.7493821675235871
final auc: 0.7493734283358316
true base_rate: 0.2559232297936114
base_rate_corr: 0.2559294283043617
auc_corrupted: 0.7493734283358316, auc_real: 0.7494102389121619
final auc: 0.7493480647233663
true base_rate: 0.2559232297936114
base_rate_corr: 0.2559185199761296
auc_corrupted: 0.7493480647233663, auc_real: 0.7493848732180489
final auc: 0.7493673846721398
true base_rate: 0.2559232297936114
base_rate_corr: 0.2559185199761296
auc_corrupted: 0.7493673846721398, auc_real: 0.7494041960188126
final auc: 0.7493531529048078
true base_rate: 0.2559232297936114
base_rate_corr: 0.25591415664483674
auc_corrupted: 0.7493531529048078, auc_real: 0.7493899628155957
final auc: 0.7493448932686866
true base_rate: 0.2559232297936114
base_rate_corr: 0.2559316099700082
auc_corrupted: 0.7493448932686866, auc_real: 0.7493816993004487
final auc: 0.7493449025525196
true base_rate: 0.2559232297936114
base_rate_corr: 0.2559185199761296
auc_corrupted: 0.7493449025525196, auc_real: 0.7493817105804059
final auc: 0.7493491011739198
true base_rate: 0.2559232297936114
base_rate_corr: 0.25593597330130097
auc_corrupted: 0.7493491011739198, auc_real: 0.7493859071619393
final auc: 0.749334310118625
true base_rate: 0.2559232297936114
base_rate_corr: 0.2559250649730689
auc_corrupted: 0.749334310118625, auc_real: 0.7493711155855028
final auc: 0.7493719966209124
true base_rate: 0.2559232297936114
base_rate_corr: 0.25590979331354385
auc_corrupted: 0.7493719966209124, auc_real: 0.7494088099785103
final auc: 0.7493468701693606
true base_rate: 0.2559232297936114
base_rate_corr: 0.2559185199761296
auc_corrupted: 0.7493468701693606, auc_real: 0.7493836784877045
final auc: 0.749359897364663
true base_rate: 0.2559232297936114
base_rate_corr: 0.25590979331354385
auc_corrupted: 0.749359897364663, auc_real: 0.7493967089361172
final auc: 0.7493294769104482
true base_rate: 0.2559232297936114
base_rate_corr: 0.25593379163565455
auc_corrupted: 0.7493294769104482, auc_real: 0.7493662803341724
epoch: 0, mean_auc_tf: 0.7493574619293213, std_auc_tf: 0.0
epoch: 0, mean_auc_sk: 0.7493831215889618, std_auc_sk: 0.0
epoch 0 ends at: 2022-06-18 17:06:44.345205 , uses: 5:46:52.678393
# clients: 1000, # total samples: 458407
# positives: 117317.0, # negatives: 341090.0
final auc: 0.7664344118585038
true base_rate: 0.2559232297936114
base_rate_corr: 0.2559294283043617
auc_corrupted: 0.7664344118585038, auc_real: 0.7664737408452373
final auc: 0.766467867682758
true base_rate: 0.2559232297936114
base_rate_corr: 0.25590979331354385
auc_corrupted: 0.766467867682758, auc_real: 0.7665072048057482
final auc: 0.7664343269561189
true base_rate: 0.2559232297936114
base_rate_corr: 0.2559250649730689
auc_corrupted: 0.7664343269561189, auc_real: 0.7664736566407951
final auc: 0.766448255509542
true base_rate: 0.2559232297936114
base_rate_corr: 0.25591415664483674
auc_corrupted: 0.766448255509542, auc_real: 0.7664875890266869
final auc: 0.7664390702509722
true base_rate: 0.2559232297936114
base_rate_corr: 0.25590324831660466
auc_corrupted: 0.7664390702509722, auc_real: 0.7664784041886984
final auc: 0.766453264127811
true base_rate: 0.2559232297936114
base_rate_corr: 0.25592288330742247
auc_corrupted: 0.766453264127811, auc_real: 0.7664925969631701
final auc: 0.7664699615692688
true base_rate: 0.2559232297936114
base_rate_corr: 0.2559119749791903
auc_corrupted: 0.7664699615692688, auc_real: 0.7665092986460287
final auc: 0.7664218883006284
true base_rate: 0.2559232297936114
base_rate_corr: 0.25592288330742247
auc_corrupted: 0.7664218883006284, auc_real: 0.7664612165044051
final auc: 0.7664344039270258
true base_rate: 0.2559232297936114
base_rate_corr: 0.25592288330742247
auc_corrupted: 0.7664344039270258, auc_real: 0.7664737339783125
final auc: 0.7664301940932476
true base_rate: 0.2559232297936114
base_rate_corr: 0.25592070164177605
auc_corrupted: 0.7664301940932476, auc_real: 0.7664695238783444
final auc: 0.7664353949772285
true base_rate: 0.2559232297936114
base_rate_corr: 0.2559294283043617
auc_corrupted: 0.7664353949772285, auc_real: 0.7664747241090824
final auc: 0.7664437407188683
true base_rate: 0.2559232297936114
base_rate_corr: 0.2559185199761296
auc_corrupted: 0.7664437407188683, auc_real: 0.7664830728589607
final auc: 0.7664522851473525
true base_rate: 0.2559232297936114
base_rate_corr: 0.25592070164177605
auc_corrupted: 0.7664522851473525, auc_real: 0.7664916181934777
final auc: 0.7664339835991332
true base_rate: 0.2559232297936114
base_rate_corr: 0.2559250649730689
auc_corrupted: 0.7664339835991332, auc_real: 0.7664733132331247
final auc: 0.76644115483215
true base_rate: 0.2559232297936114
base_rate_corr: 0.25592288330742247
auc_corrupted: 0.76644115483215, auc_real: 0.7664804858799802
final auc: 0.7664466477250198
true base_rate: 0.2559232297936114
base_rate_corr: 0.25592288330742247
auc_corrupted: 0.7664466477250198, auc_real: 0.7664859795836902
final auc: 0.7664502815885816
true base_rate: 0.2559232297936114
base_rate_corr: 0.2559316099700082
auc_corrupted: 0.7664502815885816, auc_real: 0.7664896125626337
final auc: 0.7664481385687496
true base_rate: 0.2559232297936114
base_rate_corr: 0.2559272466387153
auc_corrupted: 0.7664481385687496, auc_real: 0.7664874699369665
final auc: 0.7664307993578392
true base_rate: 0.2559232297936114
base_rate_corr: 0.25590979331354385
auc_corrupted: 0.7664307993578392, auc_real: 0.7664701310086451
final auc: 0.7664509360204502
true base_rate: 0.2559232297936114
base_rate_corr: 0.25591415664483674
auc_corrupted: 0.7664509360204502, auc_real: 0.7664902699332964
final auc: 0.7664476164765077
true base_rate: 0.2559232297936114
base_rate_corr: 0.25593379163565455
auc_corrupted: 0.7664476164765077, auc_real: 0.7664869467019227
final auc: 0.7664523969293705
true base_rate: 0.2559232297936114
base_rate_corr: 0.25593379163565455
auc_corrupted: 0.7664523969293705, auc_real: 0.7664917278604262
final auc: 0.76643435187531
true base_rate: 0.2559232297936114
base_rate_corr: 0.25592288330742247
auc_corrupted: 0.76643435187531, auc_real: 0.766473681918913
final auc: 0.7664476361155972
true base_rate: 0.2559232297936114
base_rate_corr: 0.2559250649730689
auc_corrupted: 0.7664476361155972, auc_real: 0.766486967764904
final auc: 0.7664247286638743
true base_rate: 0.2559232297936114
base_rate_corr: 0.2558967033196653
auc_corrupted: 0.7664247286638743, auc_real: 0.7664640615503195
final auc: 0.7664072744437573
true base_rate: 0.2559232297936114
base_rate_corr: 0.25594251829824033
auc_corrupted: 0.7664072744437573, auc_real: 0.7664465972936377
final auc: 0.7664320810313962
true base_rate: 0.2559232297936114
base_rate_corr: 0.2559272466387153
auc_corrupted: 0.7664320810313962, auc_real: 0.7664714100293021
final auc: 0.7664301056781719
true base_rate: 0.2559232297936114
base_rate_corr: 0.2559185199761296
auc_corrupted: 0.7664301056781719, auc_real: 0.7664694358054742
final auc: 0.7664365418297001
true base_rate: 0.2559232297936114
base_rate_corr: 0.2559316099700082
auc_corrupted: 0.7664365418297001, auc_real: 0.7664758707756136
final auc: 0.7664380438374137
true base_rate: 0.2559232297936114
base_rate_corr: 0.255905429982251
auc_corrupted: 0.7664380438374137, auc_real: 0.7664773772682945
final auc: 0.766430555280978
true base_rate: 0.2559232297936114
base_rate_corr: 0.2559272466387153
auc_corrupted: 0.766430555280978, auc_real: 0.7664698840536625
final auc: 0.7664354111392415
true base_rate: 0.2559232297936114
base_rate_corr: 0.2559185199761296
auc_corrupted: 0.7664354111392415, auc_real: 0.7664747420497302
final auc: 0.7664028780839309
true base_rate: 0.2559232297936114
base_rate_corr: 0.2559272466387153
auc_corrupted: 0.7664028780839309, auc_real: 0.7664422027710848
final auc: 0.7664198982543068
true base_rate: 0.2559232297936114
base_rate_corr: 0.2559403366325939
auc_corrupted: 0.7664198982543068, auc_real: 0.7664592233226873
final auc: 0.7664356344245502
true base_rate: 0.2559232297936114
base_rate_corr: 0.25594469996388675
auc_corrupted: 0.7664356344245502, auc_real: 0.7664749611052989
final auc: 0.7664420922440282
true base_rate: 0.2559232297936114
base_rate_corr: 0.2559119749791903
auc_corrupted: 0.7664420922440282, auc_real: 0.7664814252066365
final auc: 0.7664264457631281
true base_rate: 0.2559232297936114
base_rate_corr: 0.25591633831048316
auc_corrupted: 0.7664264457631281, auc_real: 0.766465775705417
final auc: 0.766424773319603
true base_rate: 0.2559232297936114
base_rate_corr: 0.2559272466387153
auc_corrupted: 0.766424773319603, auc_real: 0.7664641012387914
final auc: 0.7664523094843338
true base_rate: 0.2559232297936114
base_rate_corr: 0.2559119749791903
auc_corrupted: 0.7664523094843338, auc_real: 0.7664916439552412
final auc: 0.7664377339697472
true base_rate: 0.2559232297936114
base_rate_corr: 0.2559316099700082
auc_corrupted: 0.7664377339697472, auc_real: 0.7664770630916337
final auc: 0.7664402260117966
true base_rate: 0.2559232297936114
base_rate_corr: 0.25592070164177605
auc_corrupted: 0.7664402260117966, auc_real: 0.7664795572777812
final auc: 0.7664437487528644
true base_rate: 0.2559232297936114
base_rate_corr: 0.2559185199761296
auc_corrupted: 0.7664437487528644, auc_real: 0.7664830808941427
final auc: 0.7664375543125586
true base_rate: 0.2559232297936114
base_rate_corr: 0.2559294283043617
auc_corrupted: 0.7664375543125586, auc_real: 0.7664768837631568
final auc: 0.7664650241113028
true base_rate: 0.2559232297936114
base_rate_corr: 0.2559185199761296
auc_corrupted: 0.7664650241113028, auc_real: 0.7665043593932268
final auc: 0.7664487845759416
true base_rate: 0.2559232297936114
base_rate_corr: 0.255905429982251
auc_corrupted: 0.7664487845759416, auc_real: 0.7664881195924447
final auc: 0.7664339661194743
true base_rate: 0.2559232297936114
base_rate_corr: 0.2559185199761296
auc_corrupted: 0.7664339661194743, auc_real: 0.7664732968166508
final auc: 0.7664384095677186
true base_rate: 0.2559232297936114
base_rate_corr: 0.25593815496694744
auc_corrupted: 0.7664384095677186, auc_real: 0.7664777377236764
final auc: 0.7664427258645617
true base_rate: 0.2559232297936114
base_rate_corr: 0.2559250649730689
auc_corrupted: 0.7664427258645617, auc_real: 0.7664820567890422
final auc: 0.7664172464895451
true base_rate: 0.2559232297936114
base_rate_corr: 0.25592288330742247
auc_corrupted: 0.7664172464895451, auc_real: 0.7664565740081151
final auc: 0.7664294588282238
true base_rate: 0.2559232297936114
base_rate_corr: 0.25594251829824033
auc_corrupted: 0.7664294588282238, auc_real: 0.7664687849526138
epoch: 1, mean_auc_tf: 0.7664340734481812, std_auc_tf: 0.0
epoch: 1, mean_auc_sk: 0.7664771312694274, std_auc_sk: 0.0
epoch 1 ends at: 2022-06-18 22:59:20.150065 , uses: 11:39:28.483253
# clients: 1000, # total samples: 458407
# positives: 117317.0, # negatives: 341090.0
final auc: 0.7701263162453358
true base_rate: 0.2559232297936114
base_rate_corr: 0.2559294283043617
auc_corrupted: 0.7701263162453358, auc_real: 0.7701661902024342
final auc: 0.7701565706325364
true base_rate: 0.2559232297936114
base_rate_corr: 0.2559403366325939
auc_corrupted: 0.7701565706325364, auc_real: 0.7701964472546776
final auc: 0.7701741949225595
true base_rate: 0.2559232297936114
base_rate_corr: 0.25592288330742247
auc_corrupted: 0.7701741949225595, auc_real: 0.7702140770278207
final auc: 0.7701478616175798
true base_rate: 0.2559232297936114
base_rate_corr: 0.25591633831048316
auc_corrupted: 0.7701478616175798, auc_real: 0.7701877409162599
final auc: 0.7701832711013489
true base_rate: 0.2559232297936114
base_rate_corr: 0.2559316099700082
auc_corrupted: 0.7701832711013489, auc_real: 0.7702231531054573
final auc: 0.7702028827807927
true base_rate: 0.2559232297936114
base_rate_corr: 0.25591415664483674
auc_corrupted: 0.7702028827807927, auc_real: 0.7702427705620136
final auc: 0.7701594027082207
true base_rate: 0.2559232297936114
base_rate_corr: 0.25592070164177605
auc_corrupted: 0.7701594027082207, auc_real: 0.7701992829901331
final auc: 0.7701883554062964
true base_rate: 0.2559232297936114
base_rate_corr: 0.25592070164177605
auc_corrupted: 0.7701883554062964, auc_real: 0.7702282399621364
final auc: 0.7701886847533379
true base_rate: 0.2559232297936114
base_rate_corr: 0.25592288330742247
auc_corrupted: 0.7701886847533379, auc_real: 0.7702285689975339
final auc: 0.7701519683612752
true base_rate: 0.2559232297936114
base_rate_corr: 0.25593597330130097
auc_corrupted: 0.7701519683612752, auc_real: 0.7701918450244118
final auc: 0.7701902218818084
true base_rate: 0.2559232297936114
base_rate_corr: 0.25592070164177605
auc_corrupted: 0.7701902218818084, auc_real: 0.770230106713173
final auc: 0.770190022815836
true base_rate: 0.2559232297936114
base_rate_corr: 0.25593815496694744
auc_corrupted: 0.770190022815836, auc_real: 0.770229904735912
final auc: 0.7701952581696032
true base_rate: 0.2559232297936114
base_rate_corr: 0.25592070164177605
auc_corrupted: 0.7701952581696032, auc_real: 0.7702351437444126
final auc: 0.7701707425985356
true base_rate: 0.2559232297936114
base_rate_corr: 0.2559316099700082
auc_corrupted: 0.7701707425985356, auc_real: 0.7702106227533
final auc: 0.7701593445486348
true base_rate: 0.2559232297936114
base_rate_corr: 0.25591633831048316
auc_corrupted: 0.7701593445486348, auc_real: 0.7701992255424283
final auc: 0.7701546029526161
true base_rate: 0.2559232297936114
base_rate_corr: 0.25591633831048316
auc_corrupted: 0.7701546029526161, auc_real: 0.7701944832464539
final auc: 0.7701794976829068
true base_rate: 0.2559232297936114
base_rate_corr: 0.2559250649730689
auc_corrupted: 0.7701794976829068, auc_real: 0.7702193802106998
final auc: 0.7701576755861622
true base_rate: 0.2559232297936114
base_rate_corr: 0.2559316099700082
auc_corrupted: 0.7701576755861622, auc_real: 0.7701975538120928
final auc: 0.7701968616936916
true base_rate: 0.2559232297936114
base_rate_corr: 0.2559403366325939
auc_corrupted: 0.7701968616936916, auc_real: 0.770236744263019
final auc: 0.7701534283370556
true base_rate: 0.2559232297936114
base_rate_corr: 0.25592288330742247
auc_corrupted: 0.7701534283370556, auc_real: 0.7701933073768311
final auc: 0.770193215739938
true base_rate: 0.2559232297936114
base_rate_corr: 0.25590761164789744
auc_corrupted: 0.770193215739938, auc_real: 0.7702331031750063
final auc: 0.770157983674321
true base_rate: 0.2559232297936114
base_rate_corr: 0.25592288330742247
auc_corrupted: 0.770157983674321, auc_real: 0.7701978633865384
final auc: 0.7701861880127895
true base_rate: 0.2559232297936114
base_rate_corr: 0.25591415664483674
auc_corrupted: 0.7701861880127895, auc_real: 0.7702260733295021
final auc: 0.770156381022491
true base_rate: 0.2559232297936114
base_rate_corr: 0.25593379163565455
auc_corrupted: 0.770156381022491, auc_real: 0.7701962586971477
final auc: 0.7701907215610826
true base_rate: 0.2559232297936114
base_rate_corr: 0.25592070164177605
auc_corrupted: 0.7701907215610826, auc_real: 0.7702306064662088
final auc: 0.7701850297148236
true base_rate: 0.2559232297936114
base_rate_corr: 0.2559250649730689
auc_corrupted: 0.7701850297148236, auc_real: 0.7702249130592271
final auc: 0.770186383517499
true base_rate: 0.2559232297936114
base_rate_corr: 0.2559294283043617
auc_corrupted: 0.770186383517499, auc_real: 0.7702262663412635
final auc: 0.7701903937478305
true base_rate: 0.2559232297936114
base_rate_corr: 0.2559250649730689
auc_corrupted: 0.7701903937478305, auc_real: 0.7702302778840454
final auc: 0.7701957838113822
true base_rate: 0.2559232297936114
base_rate_corr: 0.2559272466387153
auc_corrupted: 0.7701957838113822, auc_real: 0.7702356683829945
final auc: 0.7701776739569575
true base_rate: 0.2559232297936114
base_rate_corr: 0.25591633831048316
auc_corrupted: 0.7701776739569575, auc_real: 0.770217557656543
final auc: 0.7701866096678789
true base_rate: 0.2559232297936114
base_rate_corr: 0.2559272466387153
auc_corrupted: 0.7701866096678789, auc_real: 0.7702264928852629
final auc: 0.7701835316666933
true base_rate: 0.2559232297936114
base_rate_corr: 0.2559272466387153
auc_corrupted: 0.7701835316666933, auc_real: 0.7702234144297225
final auc: 0.7701866353131412
true base_rate: 0.2559232297936114
base_rate_corr: 0.2559185199761296
auc_corrupted: 0.7701866353131412, auc_real: 0.7702265199753313
final auc: 0.7701415101629232
true base_rate: 0.2559232297936114
base_rate_corr: 0.25594469996388675
auc_corrupted: 0.7701415101629232, auc_real: 0.7701813838417954
final auc: 0.7701766384652777
true base_rate: 0.2559232297936114
base_rate_corr: 0.2559294283043617
auc_corrupted: 0.7701766384652777, auc_real: 0.770216519850553
final auc: 0.7701714467293673
true base_rate: 0.2559232297936114
base_rate_corr: 0.2559250649730689
auc_corrupted: 0.7701714467293673, auc_real: 0.7702113280687194
final auc: 0.7701796326636416
true base_rate: 0.2559232297936114
base_rate_corr: 0.25591633831048316
auc_corrupted: 0.7701796326636416, auc_real: 0.770219516652372
final auc: 0.7701975104788966
true base_rate: 0.2559232297936114
base_rate_corr: 0.25591633831048316
auc_corrupted: 0.7701975104788966, auc_real: 0.7702373971067548
final auc: 0.7701803285803972
true base_rate: 0.2559232297936114
base_rate_corr: 0.255905429982251
auc_corrupted: 0.7701803285803972, auc_real: 0.7702202144732919
final auc: 0.7701509870902749
true base_rate: 0.2559232297936114
base_rate_corr: 0.2559316099700082
auc_corrupted: 0.7701509870902749, auc_real: 0.7701908643289103
final auc: 0.7701734858397528
true base_rate: 0.2559232297936114
base_rate_corr: 0.25592288330742247
auc_corrupted: 0.7701734858397528, auc_real: 0.7702133678403419
final auc: 0.7701705344011547
true base_rate: 0.2559232297936114
base_rate_corr: 0.2559272466387153
auc_corrupted: 0.7701705344011547, auc_real: 0.7702104152456107
final auc: 0.7701575520453922
true base_rate: 0.2559232297936114
base_rate_corr: 0.25591633831048316
auc_corrupted: 0.7701575520453922, auc_real: 0.7701974327745759
final auc: 0.7701851661913859
true base_rate: 0.2559232297936114
base_rate_corr: 0.2559185199761296
auc_corrupted: 0.7701851661913859, auc_real: 0.7702250506367058
final auc: 0.7701597998552492
true base_rate: 0.2559232297936114
base_rate_corr: 0.2559294283043617
auc_corrupted: 0.7701597998552492, auc_real: 0.7701996787549391
final auc: 0.7701659524572083
true base_rate: 0.2559232297936114
base_rate_corr: 0.25594251829824033
auc_corrupted: 0.7701659524572083, auc_real: 0.7702058301039935
final auc: 0.7701916729071778
true base_rate: 0.2559232297936114
base_rate_corr: 0.25590761164789744
auc_corrupted: 0.7701916729071778, auc_real: 0.7702315601144845
final auc: 0.7701474662251149
true base_rate: 0.2559232297936114
base_rate_corr: 0.2559403366325939
auc_corrupted: 0.7701474662251149, auc_real: 0.7701873415033946
final auc: 0.7701654390378877
true base_rate: 0.2559232297936114
base_rate_corr: 0.2559250649730689
auc_corrupted: 0.7701654390378877, auc_real: 0.7702053194904148
final auc: 0.7701775654523013
true base_rate: 0.2559232297936114
base_rate_corr: 0.2559272466387153
auc_corrupted: 0.7701775654523013, auc_real: 0.7702174473346362
epoch: 2, mean_auc_tf: 0.7701895236968994, std_auc_tf: 0.0
epoch: 2, mean_auc_sk: 0.7702185466609048, std_auc_sk: 0.0
epoch 2 ends at: 2022-06-19 04:29:17.873103 , uses: 17:09:26.206291
